<svg width="66" height="51" viewBox="0 0 66 51" fill="none" xmlns="http://www.w3.org/2000/svg">
<path d="M60 1.5C56.67 0.45 53.01 0 49.5 0C43.65 0 37.35 1.2 33 4.5C28.65 1.2 22.35 0 16.5 0C10.65 0 4.35 1.2 0 4.5V48.45C0 49.2 0.75 49.95 1.5 49.95C1.8 49.95 1.95 49.8 2.25 49.8C6.3 47.85 12.15 46.5 16.5 46.5C22.35 46.5 28.65 47.7 33 51C37.05 48.45 44.4 46.5 49.5 46.5C54.45 46.5 59.55 47.4 63.75 49.65C64.05 49.8 64.2 49.8 64.5 49.8C65.25 49.8 66 49.05 66 48.3V4.5C64.2 3.15 62.25 2.25 60 1.5ZM60 42C56.7 40.95 53.1 40.5 49.5 40.5C44.4 40.5 37.05 42.45 33 45V10.5C37.05 7.95 44.4 6 49.5 6C53.1 6 56.7 6.45 60 7.5V42Z" fill="white"/>
</svg>
